<svg width="251" height="36" viewBox="0 0 251 36" fill="none" xmlns="http://www.w3.org/2000/svg">
<g clip-path="url(#clip0_40003001_7937)">
<path d="M34.8388 23.826V12.7341H31.7837V10.2043H40.8152V12.7341H37.7793V23.826H34.8388Z" fill="white"/>
<path d="M44.5909 10.2043V22.6389L42.987 21.2768H48.9444V23.826H41.6504V10.2043H44.5909Z" fill="white"/>
<path d="M49.8699 23.826V10.2043H57.4884V12.7341H52.8104V15.4389H56.6483V17.9103H52.8104V21.2962H57.6794V23.826H49.8699Z" fill="white"/>
<path d="M58.8165 23.826V10.2043H60.8978L68.4782 19.6033H67.4089V10.2043H70.3494V23.826H68.4591L60.9551 14.6022H61.757V23.826H58.8165Z" fill="white"/>
<path d="M76.3623 21.2962C77.0751 21.2962 77.7116 21.2054 78.2717 21.0238C78.8445 20.8422 79.3218 20.5762 79.7037 20.226C80.0983 19.8627 80.3975 19.4087 80.6012 18.8638C80.8048 18.3189 80.9067 17.6833 80.9067 16.9568C80.9067 16.2303 80.7985 15.6011 80.5821 15.0692C80.3657 14.5373 80.0602 14.1027 79.6655 13.7654C79.2709 13.4152 78.7999 13.1557 78.2526 12.987C77.7052 12.8184 77.1006 12.7341 76.4386 12.7341H73.5363V10.2043H76.916C78.0616 10.2043 79.0736 10.3665 79.952 10.6908C80.8303 11.0152 81.5686 11.4692 82.1669 12.053C82.7779 12.6368 83.2361 13.3438 83.5416 14.1741C83.8472 14.9914 83.9999 15.906 83.9999 16.9179C83.9999 18.0984 83.8026 19.1233 83.408 19.9925C83.0261 20.8616 82.4978 21.5816 81.8232 22.1525C81.1612 22.7233 80.3848 23.1449 79.4937 23.4173C78.6026 23.6898 77.6543 23.826 76.6487 23.826H73.5172L73.5363 21.2962H76.3623ZM75.1975 10.2043V23.826H72.257V10.2043H75.1975Z" fill="white"/>
<path d="M5.59911 9.19824L1.51367 13.3002L12.7 24.7271L24.0808 13.3002L19.9954 9.19824H5.59911Z" stroke="white" stroke-width="2.38209" stroke-linecap="square"/>
<path d="M2.96631 13.6669L23.1874 13.6669" stroke="white" stroke-width="2.38209"/>
<path d="M12.7969 13.6669L12.7969 24.3919" stroke="white" stroke-width="2.38209"/>
</g>
<path d="M96.25 7.98651C96.3881 7.98651 96.5 8.09844 96.5 8.23651V27.7014C96.5 27.8394 96.3881 27.9514 96.25 27.9514C96.112 27.9513 96 27.8394 96 27.7014V8.23651C96 8.09848 96.112 7.98658 96.25 7.98651Z" fill="white" fill-opacity="0.7"/>
<g clip-path="url(#clip1_40003001_7937)">
<path d="M129.618 23.8597L114.568 27.5765L110.012 26.3607V23.6585C110.012 22.1703 110 21.098 110 21.098L114.647 22.2191L129.618 18.556V23.8597ZM154.362 17.5169C155.511 17.5169 156.492 17.9206 157.289 18.724H157.29C158.095 19.5212 158.499 20.5027 158.499 21.6527C158.499 22.7962 158.095 23.7776 157.291 24.5814L157.29 24.5804C156.493 25.3847 155.512 25.7894 154.362 25.7894C153.284 25.7893 152.354 25.4343 151.585 24.7269L151.434 24.5804C150.637 23.7765 150.237 22.7953 150.237 21.6527C150.237 20.5034 150.637 19.5223 151.435 18.7249C152.232 17.9207 153.213 17.5171 154.362 17.5169ZM167.866 17.5169C169.015 17.5169 169.996 17.9205 170.793 18.724H170.794C171.599 19.5212 172.003 20.5027 172.003 21.6527C172.003 22.7962 171.599 23.7776 170.795 24.5814L170.794 24.5804C169.997 25.3847 169.016 25.7894 167.866 25.7894C166.788 25.7893 165.858 25.4344 165.089 24.7269L164.938 24.5804C164.141 23.7765 163.741 22.7954 163.741 21.6527C163.741 20.5034 164.141 19.5223 164.938 18.7249C165.736 17.9207 166.717 17.517 167.866 17.5169ZM176.485 17.5169C177.212 17.517 177.882 17.6912 178.492 18.0414H178.493C179.108 18.3907 179.59 18.865 179.935 19.4613L180.057 19.6732L179.846 19.7953L178.978 20.2992L178.756 20.4281L178.638 20.1996C178.47 19.876 178.23 19.6092 177.911 19.3997L177.77 19.3138L177.766 19.3119C177.384 19.0853 176.958 18.9701 176.485 18.9701C175.679 18.9701 175.036 19.2269 174.537 19.7318L174.538 19.7328C174.043 20.2409 173.792 20.8752 173.792 21.6527C173.792 22.4226 174.043 23.0532 174.538 23.5619H174.537C175.036 24.0673 175.679 24.3245 176.485 24.3246C176.9 24.3245 177.278 24.2394 177.622 24.0706L177.768 23.9925C178.159 23.7637 178.447 23.468 178.639 23.1048L178.756 22.8812L178.976 23.0052L179.844 23.4984L180.056 23.6195L179.937 23.8314C179.6 24.4285 179.121 24.9063 178.506 25.263L178.504 25.264C177.887 25.6143 177.212 25.7894 176.485 25.7894C175.364 25.7893 174.411 25.4397 173.644 24.7367L173.492 24.5912L173.491 24.5902C172.708 23.792 172.317 22.8073 172.317 21.6527C172.317 20.4984 172.709 19.5141 173.491 18.7162L173.492 18.7152L173.644 18.5697C174.412 17.8665 175.364 17.517 176.485 17.5169ZM184.317 17.5169C185.467 17.517 186.447 17.9205 187.244 18.724H187.245C188.05 19.5212 188.454 20.5027 188.454 21.6527C188.454 22.7961 188.05 23.7776 187.246 24.5814L187.245 24.5804C186.448 25.3847 185.467 25.7894 184.317 25.7894C183.239 25.7893 182.309 25.4344 181.54 24.7269L181.389 24.5804C180.592 23.7764 180.192 22.7954 180.192 21.6527C180.192 20.5034 180.592 19.5223 181.39 18.7249C182.187 17.9208 183.168 17.517 184.317 17.5169ZM140.754 17.6576C141.506 17.6577 142.145 17.9121 142.65 18.4242H142.651C143.165 18.9301 143.421 19.5661 143.421 20.3138C143.421 21.0552 143.164 21.6904 142.652 22.2025L142.651 22.2015C142.145 22.7146 141.507 22.9709 140.754 22.971H139.271V25.6507H137.786V17.6576H140.754ZM147.356 17.6576C148.064 17.6576 148.676 17.9116 149.179 18.4134L149.356 18.6048C149.743 19.0636 149.938 19.608 149.938 20.2279C149.938 20.7658 149.774 21.2581 149.452 21.6986L149.453 21.6996C149.196 22.0588 148.873 22.3314 148.489 22.5189L150.118 25.2826L150.336 25.6507H148.664L148.593 25.5296L146.981 22.7777H145.596V25.6507H144.11V17.6576H147.356ZM164.071 19.0892H161.853V25.6507H160.377V19.0892H158.169V17.6576H164.071V19.0892ZM190.647 24.2191H193.886V25.6507H189.162V17.6576H190.647V24.2191ZM193.641 25.4066H193.642V24.4632H193.641V25.4066ZM156.036 25.1849C155.98 25.2115 155.924 25.2374 155.866 25.2611C155.981 25.2137 156.093 25.1601 156.203 25.1009L156.036 25.1849ZM169.54 25.1849C169.484 25.2115 169.427 25.2374 169.37 25.2611C169.485 25.2137 169.597 25.1601 169.707 25.1009L169.54 25.1849ZM156.678 24.7943C156.627 24.8327 156.576 24.8701 156.523 24.9056L156.679 24.7953C156.73 24.7568 156.78 24.7165 156.829 24.6751L156.678 24.7943ZM170.332 24.6751C170.233 24.7579 170.131 24.8347 170.027 24.9056L170.183 24.7953C170.284 24.7184 170.383 24.635 170.479 24.5462L170.332 24.6751ZM186.479 24.9056L186.633 24.7953C186.647 24.7843 186.66 24.7713 186.675 24.7601C186.61 24.8105 186.545 24.8601 186.479 24.9056ZM154.362 24.5697C154.402 24.5697 154.442 24.5651 154.48 24.5638C154.441 24.5651 154.402 24.5687 154.362 24.5687L154.061 24.556L154.362 24.5697ZM167.866 24.5697C167.905 24.5697 167.943 24.5651 167.981 24.5638C167.943 24.5651 167.905 24.5687 167.866 24.5687L167.564 24.556L167.866 24.5697ZM176.485 24.5697C176.53 24.5697 176.574 24.5666 176.617 24.5648C176.574 24.5666 176.53 24.5687 176.485 24.5687L176.344 24.5628C176.39 24.5648 176.438 24.5697 176.485 24.5697ZM184.317 24.5697C184.356 24.5697 184.395 24.5651 184.433 24.5638C184.395 24.5651 184.356 24.5687 184.317 24.5687L184.016 24.556L184.317 24.5697ZM157.118 24.4085L157.248 24.2738C157.25 24.2714 157.252 24.2683 157.254 24.266C157.21 24.314 157.165 24.3618 157.118 24.4085ZM154.362 18.9701C153.698 18.9702 153.136 19.1678 152.664 19.5628L152.467 19.7445C151.965 20.2532 151.712 20.884 151.712 21.6527C151.712 22.4138 151.965 23.045 152.469 23.5619H152.468C152.977 24.0701 153.603 24.3244 154.362 24.3246C155.122 24.3246 155.745 24.0693 156.247 23.5609L156.427 23.3617C156.818 22.8841 157.013 22.3178 157.013 21.6527C157.013 20.8849 156.757 20.2545 156.248 19.7455L156.246 19.7435C155.744 19.2285 155.121 18.9701 154.362 18.9701ZM167.866 18.9701C167.202 18.9701 166.64 19.1679 166.168 19.5628L165.971 19.7445C165.469 20.2532 165.216 20.884 165.216 21.6527C165.216 22.4138 165.469 23.045 165.973 23.5619H165.972C166.481 24.0701 167.107 24.3245 167.866 24.3246C168.626 24.3246 169.249 24.0693 169.751 23.5609L169.931 23.3617C170.321 22.8842 170.517 22.3177 170.517 21.6527C170.516 20.8849 170.261 20.2545 169.752 19.7455L169.75 19.7435C169.248 19.2284 168.625 18.9701 167.866 18.9701ZM184.317 18.9701C183.653 18.9701 183.091 19.1679 182.619 19.5628L182.422 19.7445C181.92 20.2532 181.667 20.884 181.667 21.6527C181.667 22.4138 181.92 23.045 182.424 23.5619H182.423C182.932 24.0702 183.558 24.3245 184.317 24.3246C185.077 24.3245 185.7 24.0693 186.202 23.5609L186.382 23.3617C186.773 22.8842 186.968 22.3177 186.968 21.6527C186.968 20.8849 186.712 20.2545 186.203 19.7455L186.201 19.7435C185.699 19.2284 185.076 18.9701 184.317 18.9701ZM179.599 23.9154C179.557 23.9781 179.515 24.0394 179.47 24.099C179.562 23.9764 179.647 23.8471 179.724 23.7113L179.599 23.9154ZM178.452 23.7708C178.412 23.8117 178.37 23.8515 178.327 23.89L178.453 23.7708C178.493 23.7298 178.532 23.6873 178.568 23.6439L178.452 23.7708ZM157.257 21.6527L157.245 21.932C157.253 21.8407 157.258 21.7474 157.258 21.6527C157.258 21.5534 157.252 21.4561 157.244 21.3607C157.252 21.4561 157.257 21.5534 157.257 21.6527ZM149.254 21.558L149.345 21.4251C149.346 21.4231 149.346 21.4204 149.348 21.4183C149.318 21.465 149.287 21.5123 149.254 21.558ZM139.271 21.5492H140.754C141.063 21.5491 141.315 21.4602 141.521 21.2855L141.607 21.2044C141.831 20.9677 141.945 20.6764 141.945 20.3138C141.945 19.9884 141.857 19.7255 141.687 19.5121L141.607 19.4232C141.385 19.1953 141.107 19.0786 140.754 19.0785H139.271V21.5492ZM141.782 21.3753C141.744 21.4142 141.705 21.4505 141.664 21.4837L141.783 21.3753C141.799 21.3587 141.812 21.3397 141.827 21.3226C141.812 21.3398 141.798 21.3586 141.782 21.3753ZM145.596 21.388H147.356C147.66 21.388 147.911 21.28 148.122 21.057H148.123L148.2 20.9681C148.369 20.7554 148.452 20.5111 148.452 20.2279C148.452 19.9045 148.344 19.6374 148.125 19.4124L148.122 19.4095C147.911 19.1866 147.66 19.0785 147.356 19.0785H145.596V21.388ZM127.121 17.9486L114.583 21.1078C114.583 21.1078 111.174 20.0838 110.012 19.6624L110 14.5726L114.542 15.808L127.121 12.6214V17.9486ZM157.048 20.5111C157.083 20.5978 157.114 20.6867 157.14 20.7777L157.049 20.5111C157.014 20.4246 156.974 20.3404 156.931 20.2581L157.048 20.5111ZM143.177 20.3138L143.169 20.0931C143.168 20.0859 143.167 20.0788 143.166 20.0716C143.173 20.1507 143.177 20.2314 143.177 20.3138ZM141.782 19.2523C141.809 19.2798 141.835 19.308 141.858 19.3372L141.783 19.2523C141.75 19.2181 141.715 19.1865 141.68 19.1566L141.782 19.2523ZM170.888 19.1869C170.927 19.2344 170.966 19.2827 171.003 19.3314C170.927 19.2321 170.847 19.1347 170.76 19.0404L170.888 19.1869ZM187.339 19.1869C187.379 19.2344 187.417 19.2827 187.454 19.3314C187.379 19.2321 187.298 19.1347 187.211 19.0404L187.339 19.1869ZM164.854 19.1781C164.852 19.1809 164.85 19.184 164.848 19.1869C164.889 19.1375 164.931 19.0884 164.975 19.0404L164.854 19.1781ZM179.307 19.0052C179.359 19.0641 179.41 19.1244 179.458 19.1869L179.308 19.0052C179.255 18.9462 179.201 18.8888 179.145 18.8333L179.307 19.0052ZM147.75 18.8919C147.791 18.9047 147.832 18.9189 147.871 18.9359C147.793 18.9021 147.711 18.8767 147.625 18.8597L147.75 18.8919ZM187.073 18.8978L186.939 18.7689C186.937 18.7663 186.934 18.7637 186.931 18.7611C186.979 18.8052 187.027 18.8507 187.073 18.8978ZM154.664 18.7396C154.669 18.7401 154.675 18.741 154.681 18.7415C154.676 18.741 154.67 18.7401 154.665 18.7396L154.362 18.7259L154.664 18.7396ZM183.348 17.8724C183.314 17.8807 183.28 17.8906 183.246 17.8997C183.341 17.8741 183.437 17.8508 183.534 17.8324L183.348 17.8724ZM144.3 7.13022L146.245 12.7249L148.181 7.13022L148.237 6.96616H149.842L149.725 7.29233L147.033 14.7972L146.975 14.9593H145.505L145.447 14.7972L142.767 7.29233L142.702 7.11069V8.3978H139.271V10.2142H142.435V11.6361H139.271V13.5277H142.756V14.9593H137.786V6.96616H144.243L144.3 7.13022ZM153.379 7.12534L156.049 14.2865L158.719 7.12534L158.778 6.96616H160.243L160.303 7.12534L163.101 14.6302L163.224 14.9593H161.639L161.58 14.7982L161.028 13.2767H157.993L157.44 14.7982L157.382 14.9593H154.715L154.656 14.7982L154.104 13.2767H151.069L150.517 14.7982L150.458 14.9593H148.874L148.997 14.6302L151.795 7.12534L151.854 6.96616H153.319L153.379 7.12534ZM129.618 10.9896C129.618 10.8889 114.701 14.664 114.626 14.683L110 13.4066C110 11.6509 110.012 8.21896 110.012 8.17807L114.588 9.37045L119.68 8.17807C122.473 7.41647 129.618 5.66245 129.618 5.66245V10.9896ZM146.245 13.4701L146.246 13.472L148.411 7.2103L146.245 13.4701ZM151.241 12.0999H153.933V12.099H151.241V12.0999ZM158.165 12.0999H160.855V12.099H158.165V12.0999ZM151.589 11.8548H153.583L152.582 9.11557L151.589 11.8548ZM158.513 11.8548H160.507L159.506 9.11557L158.513 11.8548ZM139.027 10.4593H142.19V10.4583H139.027V10.4593Z" fill="white"/>
</g>
<defs>
<clipPath id="clip0_40003001_7937">
<rect width="84" height="18.1307" fill="white" transform="translate(0 7.93631)"/>
</clipPath>
<clipPath id="clip1_40003001_7937">
<rect width="84" height="22.8694" fill="white" transform="translate(110 5.56696)"/>
</clipPath>
</defs>
</svg>
