<svg width="251" height="36" viewBox="0 0 251 36" fill="none" xmlns="http://www.w3.org/2000/svg">
<g clip-path="url(#clip0_40001004_16896)">
<path d="M34.8388 23.8259V12.734H31.7837V10.2043H40.8152V12.734H37.7793V23.8259H34.8388Z" fill="black"/>
<path d="M44.5909 10.2043V22.6389L42.987 21.2767H48.9444V23.8259H41.6504V10.2043H44.5909Z" fill="black"/>
<path d="M49.8699 23.8259V10.2043H57.4884V12.734H52.8104V15.4389H56.6483V17.9102H52.8104V21.2962H57.6794V23.8259H49.8699Z" fill="black"/>
<path d="M58.8165 23.8259V10.2043H60.8978L68.4782 19.6032H67.4089V10.2043H70.3494V23.8259H68.4591L60.9551 14.6021H61.757V23.8259H58.8165Z" fill="black"/>
<path d="M76.3623 21.2962C77.0751 21.2962 77.7116 21.2054 78.2717 21.0237C78.8445 20.8421 79.3218 20.5762 79.7037 20.2259C80.0983 19.8627 80.3975 19.4086 80.6012 18.8637C80.8048 18.3189 80.9067 17.6832 80.9067 16.9567C80.9067 16.2302 80.7985 15.601 80.5821 15.0691C80.3657 14.5373 80.0602 14.1027 79.6655 13.7654C79.2709 13.4151 78.7999 13.1556 78.2526 12.987C77.7052 12.8183 77.1006 12.734 76.4386 12.734H73.5363V10.2043H76.916C78.0616 10.2043 79.0736 10.3664 79.952 10.6908C80.8303 11.0151 81.5686 11.4691 82.1669 12.0529C82.7779 12.6367 83.2361 13.3437 83.5416 14.174C83.8472 14.9913 83.9999 15.9059 83.9999 16.9178C83.9999 18.0983 83.8026 19.1232 83.408 19.9924C83.0261 20.8616 82.4978 21.5816 81.8232 22.1524C81.1612 22.7232 80.3848 23.1448 79.4937 23.4173C78.6026 23.6897 77.6543 23.8259 76.6487 23.8259H73.5172L73.5363 21.2962H76.3623ZM75.1975 10.2043V23.8259H72.257V10.2043H75.1975Z" fill="black"/>
<path d="M5.59911 9.19818L1.51367 13.3002L12.7 24.7271L24.0808 13.3002L19.9954 9.19818H5.59911Z" stroke="black" stroke-width="2.38209" stroke-linecap="square"/>
<path d="M2.96631 13.6669L23.1874 13.6669" stroke="black" stroke-width="2.38209"/>
<path d="M12.7969 13.6669L12.7969 24.3919" stroke="black" stroke-width="2.38209"/>
</g>
<path d="M96.25 7.98651C96.3881 7.98651 96.5 8.09844 96.5 8.23651V27.7014C96.5 27.8394 96.3881 27.9514 96.25 27.9514C96.112 27.9513 96 27.8394 96 27.7014V8.23651C96 8.09848 96.112 7.98658 96.25 7.98651Z" fill="#424242"/>
<g clip-path="url(#clip1_40001004_16896)">
<path d="M129.618 23.8597L114.568 27.5765L110.012 26.3607V23.6585C110.012 22.1703 110 21.098 110 21.098L114.647 22.2191L129.618 18.556V23.8597ZM154.362 17.5169C155.511 17.5169 156.492 17.9206 157.289 18.7239H157.29C158.095 19.5211 158.499 20.5027 158.499 21.6526C158.499 22.7962 158.095 23.7775 157.291 24.5814L157.29 24.5804C156.493 25.3847 155.512 25.7894 154.362 25.7894C153.284 25.7892 152.354 25.4343 151.585 24.7269L151.434 24.5804C150.637 23.7764 150.237 22.7953 150.237 21.6526C150.237 20.5034 150.637 19.5223 151.435 18.7249C152.232 17.9207 153.213 17.517 154.362 17.5169ZM167.866 17.5169C169.015 17.5169 169.996 17.9205 170.793 18.7239H170.794C171.599 19.5211 172.003 20.5027 172.003 21.6526C172.003 22.7961 171.599 23.7776 170.795 24.5814L170.794 24.5804C169.997 25.3847 169.016 25.7894 167.866 25.7894C166.788 25.7893 165.858 25.4343 165.089 24.7269L164.938 24.5804C164.141 23.7764 163.741 22.7953 163.741 21.6526C163.741 20.5034 164.141 19.5223 164.938 18.7249C165.736 17.9207 166.717 17.517 167.866 17.5169ZM176.485 17.5169C177.212 17.5169 177.882 17.6912 178.492 18.0413H178.493C179.108 18.3907 179.59 18.865 179.935 19.4612L180.057 19.6732L179.846 19.7952L178.978 20.2991L178.756 20.428L178.638 20.1995C178.47 19.876 178.23 19.6092 177.911 19.3997L177.77 19.3138L177.766 19.3118C177.384 19.0853 176.958 18.97 176.485 18.97C175.679 18.9701 175.036 19.2269 174.537 19.7318L174.538 19.7327C174.043 20.2409 173.792 20.8752 173.792 21.6526C173.792 22.4225 174.043 23.0532 174.538 23.5618H174.537C175.036 24.0673 175.679 24.3245 176.485 24.3245C176.9 24.3245 177.278 24.2394 177.622 24.0706L177.768 23.9925C178.159 23.7637 178.447 23.468 178.639 23.1048L178.756 22.8812L178.976 23.0052L179.844 23.4984L180.056 23.6194L179.937 23.8314C179.6 24.4285 179.121 24.9063 178.506 25.263L178.504 25.264C177.887 25.6142 177.212 25.7894 176.485 25.7894C175.364 25.7893 174.411 25.4397 173.644 24.7366L173.492 24.5911L173.491 24.5901C172.708 23.792 172.317 22.8072 172.317 21.6526C172.317 20.4984 172.709 19.5141 173.491 18.7161L173.492 18.7151L173.644 18.5696C174.412 17.8665 175.364 17.517 176.485 17.5169ZM184.317 17.5169C185.467 17.5169 186.447 17.9205 187.244 18.7239H187.245C188.05 19.5211 188.454 20.5027 188.454 21.6526C188.454 22.7961 188.05 23.7776 187.246 24.5814L187.245 24.5804C186.448 25.3847 185.467 25.7893 184.317 25.7894C183.239 25.7893 182.309 25.4343 181.54 24.7269L181.389 24.5804C180.592 23.7764 180.192 22.7954 180.192 21.6526C180.192 20.5034 180.592 19.5223 181.39 18.7249C182.187 17.9207 183.168 17.517 184.317 17.5169ZM140.754 17.6575C141.506 17.6576 142.145 17.9121 142.65 18.4241H142.651C143.165 18.9301 143.421 19.5661 143.421 20.3138C143.421 21.0551 143.164 21.6904 142.652 22.2025L142.651 22.2015C142.145 22.7145 141.507 22.9709 140.754 22.971H139.271V25.6507H137.786V17.6575H140.754ZM147.356 17.6575C148.064 17.6575 148.676 17.9115 149.179 18.4134L149.356 18.6048C149.743 19.0636 149.938 19.6079 149.938 20.2278C149.938 20.7658 149.774 21.258 149.452 21.6985L149.453 21.6995C149.196 22.0588 148.873 22.3314 148.489 22.5189L150.118 25.2825L150.336 25.6507H148.664L148.593 25.5296L146.981 22.7776H145.596V25.6507H144.11V17.6575H147.356ZM164.071 19.0892H161.853V25.6507H160.377V19.0892H158.169V17.6575H164.071V19.0892ZM190.647 24.2191H193.886V25.6507H189.162V17.6575H190.647V24.2191ZM193.641 25.4066H193.642V24.4632H193.641V25.4066ZM156.036 25.1849C155.98 25.2115 155.924 25.2374 155.866 25.261C155.981 25.2137 156.093 25.1601 156.203 25.1009L156.036 25.1849ZM169.54 25.1849C169.484 25.2115 169.427 25.2374 169.37 25.261C169.485 25.2137 169.597 25.1601 169.707 25.1009L169.54 25.1849ZM156.678 24.7943C156.627 24.8327 156.576 24.8701 156.523 24.9056L156.679 24.7952C156.73 24.7568 156.78 24.7165 156.829 24.6751L156.678 24.7943ZM170.332 24.6751C170.233 24.7578 170.131 24.8347 170.027 24.9056L170.183 24.7952C170.284 24.7183 170.383 24.635 170.479 24.5462L170.332 24.6751ZM186.479 24.9056L186.633 24.7952C186.647 24.7843 186.66 24.7713 186.675 24.7601C186.61 24.8105 186.545 24.86 186.479 24.9056ZM154.362 24.5696C154.402 24.5696 154.442 24.5651 154.48 24.5638C154.441 24.5651 154.402 24.5687 154.362 24.5687L154.061 24.556L154.362 24.5696ZM167.866 24.5696C167.905 24.5696 167.943 24.565 167.981 24.5638C167.943 24.565 167.905 24.5687 167.866 24.5687L167.564 24.556L167.866 24.5696ZM176.485 24.5696C176.53 24.5696 176.574 24.5666 176.617 24.5648C176.574 24.5665 176.53 24.5687 176.485 24.5687L176.344 24.5628C176.39 24.5648 176.438 24.5696 176.485 24.5696ZM184.317 24.5696C184.356 24.5696 184.395 24.565 184.433 24.5638C184.395 24.565 184.356 24.5687 184.317 24.5687L184.016 24.556L184.317 24.5696ZM157.118 24.4085L157.248 24.2737C157.25 24.2714 157.252 24.2683 157.254 24.2659C157.21 24.3139 157.165 24.3617 157.118 24.4085ZM154.362 18.97C153.698 18.9701 153.136 19.1678 152.664 19.5628L152.467 19.7444C151.965 20.2532 151.712 20.884 151.712 21.6526C151.712 22.4137 151.965 23.045 152.469 23.5618H152.468C152.977 24.0701 153.603 24.3244 154.362 24.3245C155.122 24.3245 155.745 24.0693 156.247 23.5609L156.427 23.3616C156.818 22.8841 157.013 22.3178 157.013 21.6526C157.013 20.8849 156.757 20.2544 156.248 19.7454L156.246 19.7435C155.744 19.2284 155.121 18.97 154.362 18.97ZM167.866 18.97C167.202 18.9701 166.64 19.1678 166.168 19.5628L165.971 19.7444C165.469 20.2532 165.216 20.884 165.216 21.6526C165.216 22.4138 165.469 23.045 165.973 23.5618H165.972C166.481 24.0701 167.107 24.3244 167.866 24.3245C168.626 24.3245 169.249 24.0693 169.751 23.5609L169.931 23.3616C170.321 22.8841 170.517 22.3177 170.517 21.6526C170.516 20.8849 170.261 20.2544 169.752 19.7454L169.75 19.7435C169.248 19.2284 168.625 18.97 167.866 18.97ZM184.317 18.97C183.653 18.9701 183.091 19.1679 182.619 19.5628L182.422 19.7444C181.92 20.2532 181.667 20.884 181.667 21.6526C181.667 22.4138 181.92 23.045 182.424 23.5618H182.423C182.932 24.0701 183.558 24.3244 184.317 24.3245C185.077 24.3245 185.7 24.0693 186.202 23.5609L186.382 23.3616C186.773 22.8841 186.968 22.3177 186.968 21.6526C186.968 20.8849 186.712 20.2544 186.203 19.7454L186.201 19.7435C185.699 19.2283 185.076 18.9701 184.317 18.97ZM179.599 23.9153C179.557 23.9781 179.515 24.0393 179.47 24.0989C179.562 23.9763 179.647 23.847 179.724 23.7112L179.599 23.9153ZM178.452 23.7708C178.412 23.8117 178.37 23.8515 178.327 23.89L178.453 23.7708C178.493 23.7298 178.532 23.6873 178.568 23.6439L178.452 23.7708ZM157.257 21.6526L157.245 21.9319C157.253 21.8407 157.258 21.7473 157.258 21.6526C157.258 21.5533 157.252 21.4561 157.244 21.3607C157.252 21.4561 157.257 21.5534 157.257 21.6526ZM149.254 21.5579L149.345 21.4251C149.346 21.4231 149.346 21.4203 149.348 21.4183C149.318 21.465 149.287 21.5123 149.254 21.5579ZM139.271 21.5491H140.754C141.063 21.549 141.315 21.4601 141.521 21.2855L141.607 21.2044C141.831 20.9677 141.945 20.6764 141.945 20.3138C141.945 19.9884 141.857 19.7255 141.687 19.512L141.607 19.4232C141.385 19.1952 141.107 19.0785 140.754 19.0784H139.271V21.5491ZM141.782 21.3753C141.744 21.4142 141.705 21.4504 141.664 21.4837L141.783 21.3753C141.799 21.3586 141.812 21.3397 141.827 21.3226C141.812 21.3398 141.798 21.3586 141.782 21.3753ZM145.596 21.388H147.356C147.66 21.388 147.911 21.28 148.122 21.0569H148.123L148.2 20.9681C148.369 20.7554 148.452 20.5111 148.452 20.2278C148.452 19.9045 148.344 19.6374 148.125 19.4124L148.122 19.4095C147.911 19.1866 147.66 19.0784 147.356 19.0784H145.596V21.388ZM127.121 17.9485L114.583 21.1077C114.583 21.1077 111.174 20.0838 110.012 19.6624L110 14.5726L114.542 15.8079L127.121 12.6214V17.9485ZM157.048 20.511C157.083 20.5978 157.114 20.6866 157.14 20.7776L157.049 20.511C157.014 20.4245 156.974 20.3404 156.931 20.2581L157.048 20.511ZM143.177 20.3138L143.169 20.0931C143.168 20.0859 143.167 20.0788 143.166 20.0716C143.173 20.1507 143.177 20.2314 143.177 20.3138ZM141.782 19.2523C141.809 19.2797 141.835 19.308 141.858 19.3372L141.783 19.2523C141.75 19.2181 141.715 19.1865 141.68 19.1566L141.782 19.2523ZM170.888 19.1868C170.927 19.2344 170.966 19.2826 171.003 19.3314C170.927 19.232 170.847 19.1346 170.76 19.0403L170.888 19.1868ZM187.339 19.1868C187.379 19.2344 187.417 19.2826 187.454 19.3314C187.379 19.232 187.298 19.1347 187.211 19.0403L187.339 19.1868ZM164.854 19.178C164.852 19.1809 164.85 19.184 164.848 19.1868C164.889 19.1375 164.931 19.0884 164.975 19.0403L164.854 19.178ZM179.307 19.0052C179.359 19.0641 179.41 19.1243 179.458 19.1868L179.308 19.0052C179.255 18.9462 179.201 18.8887 179.145 18.8333L179.307 19.0052ZM147.75 18.8919C147.791 18.9046 147.832 18.9189 147.871 18.9359C147.793 18.902 147.711 18.8766 147.625 18.8597L147.75 18.8919ZM187.073 18.8978L186.939 18.7689C186.937 18.7662 186.934 18.7637 186.931 18.761C186.979 18.8052 187.027 18.8507 187.073 18.8978ZM154.664 18.7396C154.669 18.74 154.675 18.741 154.681 18.7415C154.676 18.741 154.67 18.74 154.665 18.7396L154.362 18.7259L154.664 18.7396ZM183.348 17.8724C183.314 17.8806 183.28 17.8906 183.246 17.8997C183.341 17.8741 183.437 17.8508 183.534 17.8323L183.348 17.8724ZM144.3 7.13019L146.245 12.7249L148.181 7.13019L148.237 6.96613H149.842L149.725 7.2923L147.033 14.7972L146.975 14.9593H145.505L145.447 14.7972L142.767 7.2923L142.702 7.11066V8.39777H139.271V10.2142H142.435V11.636H139.271V13.5276H142.756V14.9593H137.786V6.96613H144.243L144.3 7.13019ZM153.379 7.12531L156.049 14.2864L158.719 7.12531L158.778 6.96613H160.243L160.303 7.12531L163.101 14.6302L163.224 14.9593H161.639L161.58 14.7982L161.028 13.2767H157.993L157.44 14.7982L157.382 14.9593H154.715L154.656 14.7982L154.104 13.2767H151.069L150.517 14.7982L150.458 14.9593H148.874L148.997 14.6302L151.795 7.12531L151.854 6.96613H153.319L153.379 7.12531ZM129.618 10.9896C129.618 10.8888 114.701 14.664 114.626 14.6829L110 13.4066C110 11.6509 110.012 8.21893 110.012 8.17804L114.588 9.37042L119.68 8.17804C122.473 7.41644 129.618 5.66241 129.618 5.66241V10.9896ZM146.245 13.47L146.246 13.472L148.411 7.21027L146.245 13.47ZM151.241 12.0999H153.933V12.0989H151.241V12.0999ZM158.165 12.0999H160.855V12.0989H158.165V12.0999ZM151.589 11.8548H153.583L152.582 9.11554L151.589 11.8548ZM158.513 11.8548H160.507L159.506 9.11554L158.513 11.8548ZM139.027 10.4593H142.19V10.4583H139.027V10.4593Z" fill="black"/>
</g>
<defs>
<clipPath id="clip0_40001004_16896">
<rect width="84" height="18.1307" fill="white" transform="translate(0 7.93628)"/>
</clipPath>
<clipPath id="clip1_40001004_16896">
<rect width="84" height="22.8694" fill="white" transform="translate(110 5.56696)"/>
</clipPath>
</defs>
</svg>
